<?xml version="1.0" standalone="no"?>
<!DOCTYPE svg PUBLIC "-//W3C//DTD SVG 20010904//EN"
 "http://www.w3.org/TR/2001/REC-SVG-20010904/DTD/svg10.dtd">
<svg version="1.0" xmlns="http://www.w3.org/2000/svg"
 width="512.000000pt" height="512.000000pt" viewBox="0 0 512.000000 512.000000"
 preserveAspectRatio="xMidYMid meet">
<metadata>
Created by potrace 1.11, written by Peter Selinger 2001-2013
</metadata>
<g transform="translate(0.000000,512.000000) scale(0.100000,-0.100000)"
fill="#000000" stroke="none">
<path d="M200 2560 l0 -2160 1510 0 1510 0 0 860 0 860 413 0 414 0 -1 -848
c-1 -466 0 -853 2 -860 3 -9 100 -12 438 -12 l434 0 0 2160 0 2160 -2360 0
-2360 0 0 -2160z m1274 866 c-1 -226 -2 -414 -3 -417 -1 -7 -343 -10 -377 -3
-21 4 -21 5 -19 416 1 227 3 414 4 414 0 1 90 1 199 1 l197 -1 -1 -410z m2572
-7 l0 -415 -410 0 -411 1 -3 416 -2 416 412 -1 413 -1 1 -416z m-2146 -1713
c0 -322 -3 -415 -12 -418 -11 -3 -769 -2 -804 1 -7 1 -11 126 -11 416 l1 415
413 0 413 0 0 -414z"/>
</g>
</svg>
